<svg xmlns="http://www.w3.org/2000/svg" width="512" height="512" viewBox="0 0 512 512" version="1.1"><path d="" stroke="none" fill="#080404" fill-rule="evenodd"/><path d="M 181.500 33.657 C 166.010 36.961, 151.714 44.597, 139.667 56 C 121.739 72.969, 113.368 91.523, 112.288 116.681 C 111.801 128.022, 112.027 131.185, 113.911 139.339 C 117.588 155.250, 125.125 169.005, 136.939 181.365 C 147.503 192.417, 161.058 200.561, 176.500 205.132 C 183.431 207.184, 186.571 207.497, 200 207.476 C 213.001 207.456, 216.756 207.092, 223.291 205.218 C 237.658 201.098, 250.022 193.903, 261.365 183.061 C 272.433 172.482, 280.891 158.380, 285.218 143.291 C 287.092 136.756, 287.456 133.001, 287.476 120 C 287.497 106.571, 287.184 103.431, 285.132 96.500 C 282.451 87.444, 277.503 77.102, 271.976 69 C 268.442 63.820, 256.688 52.065, 250.361 47.383 C 244.273 42.879, 230.660 36.799, 221.414 34.453 C 209.980 31.553, 192.954 31.213, 181.500 33.657 M 191 48.933 C 161.728 53, 138.804 73.071, 130.894 101.557 C 127.845 112.539, 127.846 127.466, 130.898 138.455 C 136.614 159.043, 149.479 174.638, 168.500 184.037 C 179.540 189.492, 187.386 191.303, 200 191.307 C 232.909 191.319, 260.773 169.944, 269.115 138.287 C 271.995 127.356, 271.999 112.152, 269.124 101.701 C 262.251 76.711, 243.262 57.607, 218.799 51.070 C 210.143 48.757, 198.635 47.873, 191 48.933 M 145.500 225.456 C 116.255 230.786, 92.831 243.038, 71.936 263.935 C 50.664 285.208, 38.606 308.381, 33.464 337.868 C 32.342 344.300, 32 355.663, 32 386.496 C 32 425.686, 32.054 426.799, 34.073 429.365 L 36.145 432 135.118 432 L 234.091 432 236.664 429.427 C 238.808 427.282, 239.140 426.240, 238.649 423.177 C 237.412 415.449, 244.929 416, 140.778 416 L 47.777 416 48.253 381.250 C 48.763 344.053, 49.459 337.539, 54.602 321.825 C 60.378 304.178, 69.662 289.266, 83.464 275.464 C 101.099 257.829, 120.552 247.532, 146 242.364 C 157.902 239.946, 233.544 239.334, 248 241.538 C 282.591 246.812, 310.723 263.912, 330.188 291.495 C 335.691 299.294, 336.704 300.097, 341.199 300.225 C 345.066 300.335, 349 296.212, 349 292.049 C 349 285.781, 329.442 262.883, 314.281 251.402 C 296.217 237.721, 276.269 229.242, 253.284 225.475 C 241.470 223.538, 156.105 223.524, 145.500 225.456 M 412.500 254.961 C 411.400 255.444, 375.400 290.976, 332.500 333.921 L 254.500 412.002 254.205 441.751 C 254.043 458.113, 254.167 472.524, 254.481 473.775 C 254.794 475.027, 255.939 476.939, 257.025 478.025 C 258.910 479.910, 260.472 480, 291.243 480 L 323.486 480 401.743 401.743 C 479.065 324.421, 480 323.438, 480 319.526 C 480 315.668, 479.232 314.800, 449.750 285.332 C 430.668 266.260, 418.577 254.911, 417 254.591 C 415.625 254.312, 413.600 254.479, 412.500 254.961 M 404.460 286.040 L 393.520 297.014 415.759 319.253 L 437.997 341.492 449.014 330.475 L 460.031 319.458 438.266 297.744 C 426.295 285.801, 416.252 275.813, 415.950 275.548 C 415.647 275.283, 410.477 280.005, 404.460 286.040 M 326.211 364.289 L 271 419.507 271 441.753 L 271 464 293.253 464 L 315.507 464 370.947 408.553 L 426.387 353.106 405.759 332.768 C 394.414 321.581, 384.297 311.674, 383.277 310.750 C 381.504 309.146, 378.959 311.534, 326.211 364.289" stroke="none" fill="#040404" fill-rule="evenodd"/></svg>