<svg version="1.1" id="Layer_1" xmlns="http://www.w3.org/2000/svg" xmlns:xlink="http://www.w3.org/1999/xlink" x="0px" y="0px"
	 width="100%" viewBox="0 0 512 512" enable-background="new 0 0 512 512" xml:space="preserve">
<path fill="#000000" opacity="1.000000" stroke="none" 
	d="
M242.000000,1.000000 
	C253.020889,1.000000 264.041779,1.000000 275.772949,1.184517 
	C277.434753,2.071725 278.501434,2.362273 279.664917,2.643893 
	C289.881378,5.116755 299.765350,8.592278 308.623749,14.312696 
	C338.213409,33.420536 355.175201,60.061642 356.290955,95.817154 
	C356.425598,100.132355 357.822021,101.728088 362.144165,101.678131 
	C376.139374,101.516396 390.137756,101.593079 404.134705,101.642143 
	C409.544159,101.661110 414.527771,103.128166 419.266510,105.870636 
	C432.777679,113.690002 437.648651,126.057404 438.400513,140.848373 
	C438.930847,151.281616 439.704193,161.704575 440.508942,172.121307 
	C441.733948,187.978561 443.069763,203.827301 444.378723,219.677994 
	C445.156494,229.096603 445.994720,238.505219 446.587067,247.943893 
	C447.499573,262.483887 449.160034,276.975372 450.340088,291.500702 
	C451.185883,301.911652 451.685730,312.350372 452.481476,322.765900 
	C453.718231,338.954803 455.082733,355.133911 456.378632,371.318298 
	C457.132721,380.735535 457.734741,390.166718 458.625427,399.570770 
	C460.034454,414.448212 461.997711,429.383728 459.356781,444.230194 
	C453.651825,476.301819 434.520081,497.357025 404.633972,509.226868 
	C401.428375,510.500031 397.779785,510.644135 395.000000,513.000000 
	C303.312439,513.000000 211.624878,513.000000 119.283707,512.775146 
	C118.061226,512.221985 117.530739,511.753967 116.917900,511.585480 
	C99.636826,506.835052 84.764839,498.097961 73.170815,484.351501 
	C61.401733,470.397583 54.509884,454.332977 53.619270,435.905670 
	C52.878754,420.584015 54.875900,405.384918 55.789997,390.146881 
	C56.315308,381.389832 57.212944,372.641937 57.817139,363.874176 
	C58.853336,348.837494 60.384167,333.835510 61.603928,318.810608 
	C62.408897,308.895111 62.977005,298.960510 63.750648,289.042267 
	C65.000343,273.020905 66.348495,257.007233 67.622726,240.987747 
	C68.371971,231.568268 68.994568,222.138382 69.788437,212.722809 
	C71.013084,198.198242 72.369583,183.684830 73.606621,169.161270 
	C74.675400,156.613144 75.258842,144.009445 76.772133,131.516953 
	C78.818352,114.625015 94.187805,101.632332 111.263939,101.623573 
	C124.924690,101.616562 138.586060,101.547821 152.245804,101.664169 
	C156.031143,101.696404 157.792740,100.374092 157.659470,96.433060 
	C157.519394,92.291000 157.875504,88.186180 158.487610,84.035873 
	C161.390488,64.353264 169.860214,47.404797 183.092255,32.760769 
	C198.943741,15.217752 218.810120,4.995605 242.000000,1.000000 
M360.494598,482.623016 
	C369.317657,482.970703 378.251770,482.906158 386.769623,480.881470 
	C417.870972,473.488708 432.182709,448.035919 428.445251,416.186768 
	C426.689301,401.223267 425.837036,386.152435 424.640625,371.125031 
	C423.864349,361.374939 423.265808,351.610626 422.481445,341.861237 
	C421.246155,326.506531 419.878937,311.162384 418.649841,295.807220 
	C417.856110,285.891479 417.276001,275.958618 416.481201,266.042969 
	C415.250336,250.686539 413.870911,235.341995 412.645386,219.985168 
	C411.854095,210.069458 411.477631,200.114975 410.465851,190.223831 
	C408.846771,174.396332 407.569824,158.545731 406.665985,142.667618 
	C406.232910,135.059845 403.954163,132.460175 396.334991,132.407410 
	C384.837952,132.327805 373.338287,132.502487 361.843079,132.337646 
	C357.705872,132.278336 356.251495,133.869904 356.314697,137.949875 
	C356.484894,148.944870 356.484467,159.946274 356.314728,170.941467 
	C356.201721,178.261765 350.192871,184.076508 342.903564,184.374771 
	C333.482056,184.760284 326.874786,179.994598 325.592590,172.291458 
	C323.717346,161.025284 324.862885,149.701462 324.731812,138.409851 
	C324.678131,133.782898 323.020203,132.323929 318.548981,132.335144 
	C277.391052,132.438370 236.232590,132.436707 195.074631,132.333847 
	C190.676361,132.322861 189.374924,134.027374 189.290146,138.271240 
	C189.067856,149.397461 190.310089,160.554611 188.448288,171.656235 
	C186.983932,180.388000 180.759003,185.004791 170.769272,184.375961 
	C163.244827,183.902328 157.679199,177.696945 157.639450,169.595871 
	C157.587112,158.931641 157.576538,148.266724 157.641998,137.602676 
	C157.661102,134.489670 156.890503,132.390076 153.256195,132.402267 
	C140.925735,132.443604 128.592102,132.265472 116.265770,132.496323 
	C110.157692,132.610733 107.689041,135.470367 107.406837,141.644852 
	C107.277596,144.472580 107.450783,147.320145 107.214836,150.135941 
	C105.983833,164.827301 104.594055,179.505554 103.401825,194.199905 
	C102.570419,204.447144 102.038254,214.718384 101.247177,224.969238 
	C100.010635,240.992554 98.737068,257.013702 97.344185,273.023987 
	C96.524956,282.440643 95.744759,291.853241 95.131714,301.289154 
	C94.176079,315.998169 92.592644,330.665314 91.402191,345.360504 
	C90.585464,355.442352 90.105186,365.551849 89.260231,375.631042 
	C87.709381,394.130676 85.390465,412.575623 85.382820,431.180725 
	C85.374458,451.527832 99.967560,471.845276 119.095444,478.697906 
	C127.381729,481.666473 135.955551,482.518494 144.540863,482.536163 
	C216.192520,482.683777 287.844604,482.621674 360.494598,482.623016 
M195.288208,71.647247 
	C192.066010,79.334076 189.569794,87.158043 189.300995,95.630905 
	C189.154770,100.239662 190.856369,101.706520 195.395142,101.692970 
	C236.512939,101.570160 277.631348,101.581017 318.749268,101.683563 
	C322.957458,101.694054 324.868927,100.457405 324.715271,95.987404 
	C324.605835,92.804337 324.218781,89.706169 323.582764,86.627159 
	C316.722809,53.418533 285.651245,27.596083 247.590637,32.734772 
	C223.761017,35.952087 206.588776,49.602287 195.288208,71.647247 
z"/>
<path fill="#000000" opacity="1.000000" stroke="none" 
	d="
M203.478851,291.706360 
	C208.280136,292.787750 211.655762,295.476227 214.755096,298.513275 
	C220.346405,303.992279 225.845367,309.565552 231.373276,315.109100 
	C236.478470,320.228729 236.483643,320.244965 241.450699,315.278381 
	C260.883667,295.847198 280.303619,276.403015 299.741699,256.976929 
	C304.494690,252.226913 309.724426,249.155472 316.984039,250.449432 
	C323.069641,251.534134 327.548248,254.691238 328.874664,260.340851 
	C330.220337,266.072357 330.288757,272.072510 325.252075,277.031952 
	C307.804657,294.211792 290.578644,311.616547 273.265656,328.932953 
	C265.139099,337.061127 257.016602,345.193451 248.873398,353.304932 
	C240.923111,361.224213 231.881287,361.664948 223.810760,353.879150 
	C212.063950,342.546722 200.703232,330.814911 189.127029,319.304535 
	C182.726517,312.940430 182.820114,299.893097 190.240173,294.420746 
	C194.306152,291.422028 198.581192,291.629822 203.478851,291.706360 
z"/>
</svg>